<?xml version="1.0" standalone="no"?>
<!DOCTYPE svg PUBLIC "-//W3C//DTD SVG 20010904//EN"
 "http://www.w3.org/TR/2001/REC-SVG-20010904/DTD/svg10.dtd">
<svg version="1.0" xmlns="http://www.w3.org/2000/svg"
 width="137.000000pt" height="50.000000pt" viewBox="0 0 137.000000 50.000000"
 preserveAspectRatio="xMidYMid meet">

<g transform="translate(0.000000,50.000000) scale(0.100000,-0.100000)"
fill="#000000" stroke="none">
<path d="M30 272 c0 -67 36 -95 74 -56 18 17 23 104 6 104 -5 0 -10 -19 -10
-43 0 -46 -14 -69 -36 -60 -9 3 -14 22 -14 54 0 27 -4 49 -10 49 -5 0 -10 -22
-10 -48z"/>
<path d="M140 260 c0 -68 17 -82 22 -17 l3 42 23 -42 c12 -24 27 -43 32 -43 6
0 10 27 10 60 0 66 -17 83 -22 23 l-3 -38 -22 38 c-12 20 -27 37 -33 37 -6 0
-10 -25 -10 -60z"/>
<path d="M263 313 c13 -4 17 -15 17 -59 0 -30 5 -54 10 -54 6 0 10 24 10 54 0
44 4 55 18 59 9 3 -3 5 -28 5 -25 0 -37 -2 -27 -5z"/>
<path d="M340 260 c0 -33 4 -60 10 -60 6 0 10 27 10 60 0 33 -4 60 -10 60 -6
0 -10 -27 -10 -60z"/>
<path d="M393 313 c13 -4 17 -15 17 -59 0 -30 5 -54 10 -54 6 0 10 24 10 54 0
44 4 55 18 59 9 3 -3 5 -28 5 -25 0 -37 -2 -27 -5z"/>
<path d="M470 260 l0 -60 38 1 c30 2 32 3 10 6 -27 4 -28 7 -28 59 0 30 -4 54
-10 54 -6 0 -10 -27 -10 -60z"/>
<path d="M550 260 l0 -60 38 1 c30 2 32 3 10 6 -36 6 -40 49 -5 56 l22 4 -22
2 c-35 2 -31 39 5 44 22 3 20 4 -10 6 l-38 1 0 -60z"/>
<path d="M640 260 l0 -60 30 0 c34 0 70 31 70 60 0 29 -36 60 -70 60 l-30 0 0
-60z m61 40 c19 -11 25 -45 11 -66 -4 -6 -17 -14 -29 -18 -22 -7 -23 -5 -23
43 0 53 6 59 41 41z"/>
</g>
</svg>
